<svg xmlns="http://www.w3.org/2000/svg" viewBox="0 0 24 30" x="0px" y="0px"><path fill="#000000" d="M202,1778 L205,1778 C206.104569,1778 207,1778.89543 207,1780 C207,1781.10457 206.104569,1782 205,1782 L200,1782 C198.895431,1782 198,1781.10457 198,1780 L198,1775 C198,1773.89543 198.895431,1773 200,1773 C201.104569,1773 202,1773.89543 202,1775 L202,1778 Z M218,1778 L218,1775 C218,1773.89543 218.895431,1773 220,1773 C221.104569,1773 222,1773.89543 222,1775 L222,1780 C222,1781.10457 221.104569,1782 220,1782 L215,1782 C213.895431,1782 213,1781.10457 213,1780 C213,1778.89543 213.895431,1778 215,1778 L218,1778 Z M218,1762 L215,1762 C213.895431,1762 213,1761.10457 213,1760 C213,1758.89543 213.895431,1758 215,1758 L220,1758 C221.104569,1758 222,1758.89543 222,1760 L222,1765 C222,1766.10457 221.104569,1767 220,1767 C218.895431,1767 218,1766.10457 218,1765 L218,1762 Z M202,1762 L202,1765 C202,1766.10457 201.104569,1767 200,1767 C198.895431,1767 198,1766.10457 198,1765 L198,1760 C198,1758.89543 198.895431,1758 200,1758 L205,1758 C206.104569,1758 207,1758.89543 207,1760 C207,1761.10457 206.104569,1762 205,1762 L202,1762 Z M208,1768 L208,1767 C208,1765.89543 208.895431,1765 210,1765 C211.104569,1765 212,1765.89543 212,1767 L212,1768 L213,1768 C214.104569,1768 215,1768.89543 215,1770 C215,1771.10457 214.104569,1772 213,1772 L212,1772 L212,1773 C212,1774.10457 211.104569,1775 210,1775 C208.895431,1775 208,1774.10457 208,1773 L208,1772 L207,1772 C205.895431,1772 205,1771.10457 205,1770 C205,1768.89543 205.895431,1768 207,1768 L208,1768 Z" transform="translate(-198 -1758)"/><text x="0" y="39" fill="#000000" font-size="5px" font-weight="bold" font-family="'Helvetica Neue', Helvetica, Arial-Unicode, Arial, Sans-serif">Created by Andrejs Kirma</text><text x="0" y="44" fill="#000000" font-size="5px" font-weight="bold" font-family="'Helvetica Neue', Helvetica, Arial-Unicode, Arial, Sans-serif">from the Noun Project</text></svg>