<?xml version="1.0"?>
<svg xmlns="http://www.w3.org/2000/svg" height="512px" viewBox="0 -128 448 448" width="512px"><g><path d="m80 32h336v128h-336zm0 0" data-original="#000000" class="active-path" data-old_color="#000000" fill="#FFFFFF"/><path d="m56 192h392v-192h-392c-4.417969 0-8 3.582031-8 8v176c0 4.417969 3.582031 8 8 8zm8-168c0-4.417969 3.582031-8 8-8h352c4.417969 0 8 3.582031 8 8v144c0 4.417969-3.582031 8-8 8h-352c-4.417969 0-8-3.582031-8-8zm0 0" data-original="#000000" class="active-path" data-old_color="#000000" fill="#FFFFFF"/><path d="m8 136h24v-80h-24c-4.417969 0-8 3.582031-8 8v64c0 4.417969 3.582031 8 8 8zm0 0" data-original="#000000" class="active-path" data-old_color="#000000" fill="#FFFFFF"/></g> </svg>
