<?xml version="1.0"?>
<svg xmlns="http://www.w3.org/2000/svg" height="512px" viewBox="0 0 512 512" width="512px"><g><g id="Focus"><path d="m256 144a112 112 0 1 0 112 112 112.127 112.127 0 0 0 -112-112zm0 208a96 96 0 1 1 96-96 96.108 96.108 0 0 1 -96 96z" data-original="#000000" class="active-path" data-old_color="#000000" fill="#FFFFFF"/><path d="m16 176a8 8 0 0 0 8-8v-120a24.027 24.027 0 0 1 24-24h120a8 8 0 0 0 0-16h-120a40.045 40.045 0 0 0 -40 40v120a8 8 0 0 0 8 8z" data-original="#000000" class="active-path" data-old_color="#000000" fill="#FFFFFF"/><path d="m496 336a8 8 0 0 0 -8 8v120a24.027 24.027 0 0 1 -24 24h-120a8 8 0 0 0 0 16h120a40.045 40.045 0 0 0 40-40v-120a8 8 0 0 0 -8-8z" data-original="#000000" class="active-path" data-old_color="#000000" fill="#FFFFFF"/><path d="m168 488h-120a24.027 24.027 0 0 1 -24-24v-120a8 8 0 0 0 -16 0v120a40.045 40.045 0 0 0 40 40h120a8 8 0 0 0 0-16z" data-original="#000000" class="active-path" data-old_color="#000000" fill="#FFFFFF"/><path d="m464 8h-120a8 8 0 0 0 0 16h120a24.027 24.027 0 0 1 24 24v120a8 8 0 0 0 16 0v-120a40.045 40.045 0 0 0 -40-40z" data-original="#000000" class="active-path" data-old_color="#000000" fill="#FFFFFF"/><path d="m496 184a8 8 0 0 0 -8 8v8a8 8 0 0 0 16 0v-8a8 8 0 0 0 -8-8z" data-original="#000000" class="active-path" data-old_color="#000000" fill="#FFFFFF"/></g></g> </svg>
